<?xml version="1.0" encoding="utf-8"?>
<!-- Generator: Adobe Illustrator 21.0.2, SVG Export Plug-In . SVG Version: 6.00 Build 0)  -->
<svg version="1.1" id="Layer_1" xmlns="http://www.w3.org/2000/svg" xmlns:xlink="http://www.w3.org/1999/xlink" x="0px" y="0px"
	 viewBox="0 0 120 120" style="enable-background:new 0 0 120 120;" xml:space="preserve">
<style type="text/css">
	.st0{opacity:0.47;}
	.st1{fill:#FFFFFF;}
	.st2{fill:none;stroke:#32CD32;stroke-width:3;stroke-miterlimit:10;}
</style>
<g class="st0">
	<path class="st1" d="M59.5,4C87.3,4,110,26.7,110,54.5S87.3,105,59.5,105S9,82.3,9,54.5S31.7,4,59.5,4 M59.5,2
		C30.5,2,7,25.5,7,54.5S30.5,107,59.5,107S112,83.5,112,54.5S88.5,2,59.5,2L59.5,2z"/>
</g>
<path class="st2" d="M59.8,3.3c28.3,0,51.2,22.9,51.2,51.2s-22.9,51.2-51.2,51.2c-10.8,0-20.8-3.3-29.1-9.1"/>
</svg>
