<?xml version="1.0" encoding="utf-8"?>
<!-- Generator: Adobe Illustrator 21.0.2, SVG Export Plug-In . SVG Version: 6.00 Build 0)  -->
<svg version="1.1" id="Layer_1" xmlns="http://www.w3.org/2000/svg" xmlns:xlink="http://www.w3.org/1999/xlink" x="0px" y="0px"
	 viewBox="0 0 120 120" style="enable-background:new 0 0 120 120;" xml:space="preserve">
<style type="text/css">
	.st0{opacity:0.47;}
	.st1{fill:#FFFFFF;}
	.st2{fill:#32CD32;}
</style>
<g class="st0">
	<path class="st1" d="M59.5,4C87.3,4,110,26.7,110,54.5S87.3,105,59.5,105S9,82.3,9,54.5S31.7,4,59.5,4 M59.5,2
		C30.5,2,7,25.5,7,54.5S30.5,107,59.5,107S112,83.5,112,54.5S88.5,2,59.5,2L59.5,2z"/>
</g>
<g>
	<path class="st2" d="M59.5,5C86.8,5,109,27.2,109,54.5S86.8,104,59.5,104C48,104,36.8,100,28,92.6c-4.7-3.9-8.6-8.5-11.6-13.8
		C12.2,71.5,10,63,10,54.5C10,27.2,32.2,5,59.5,5 M59.5,2C30.5,2,7,25.5,7,54.5c0,9.4,2.5,18.2,6.8,25.8C16.9,85.9,21.1,90.9,26,95
		c9.1,7.5,20.7,12,33.5,12c29,0,52.5-23.5,52.5-52.5S88.5,2,59.5,2L59.5,2z"/>
</g>
</svg>
