<?xml version="1.0" encoding="utf-8"?>
<!-- Generator: Adobe Illustrator 21.0.2, SVG Export Plug-In . SVG Version: 6.00 Build 0)  -->
<svg version="1.1" id="Layer_1" xmlns="http://www.w3.org/2000/svg" xmlns:xlink="http://www.w3.org/1999/xlink" x="0px" y="0px"
	 viewBox="0 0 60 60" style="enable-background:new 0 0 60 60;" xml:space="preserve">
<style type="text/css">
	.st0{fill:#FFFFFF;}
</style>
<g>
	<g id="XMLID_1_">
		<g>
			<path class="st0" d="M46.3,20.9c0,6,0,11.9,0,18c-3.7-3-7.3-5.9-11-8.9C38.9,26.9,42.5,24,46.3,20.9z"/>
			<path class="st0" d="M46.3,40.8c-10.8,0-21.6,0-32.4,0c0-0.1,0-0.2-0.1-0.2c4.1-3.3,8-6.5,12.1-9.8c0.9,0.7,1.7,1.4,2.5,2
				c1.1,0.8,2.3,0.8,3.3,0c0.6-0.5,1.3-1.1,2-1.6c0.2-0.2,0.6-0.2,0.8-0.1c3.9,3.1,7.8,6.3,11.6,9.3C46.3,40.5,46.3,40.6,46.3,40.8z
				"/>
			<path class="st0" d="M13.9,19c10.8,0,21.5,0,32.3,0c-0.2,0.2-0.4,0.4-0.6,0.6c-4.8,4-9.7,8-14.5,11.9c-0.8,0.6-1.3,0.7-2.1,0.1
				c-5-4.1-9.9-8.1-14.9-12.2C14.1,19.3,14.1,19.3,13.9,19z"/>
			<path class="st0" d="M13.8,20.8c3.7,3,7.3,6,11,9.1c-3.7,3-7.3,5.9-11,8.9C13.8,32.8,13.8,26.9,13.8,20.8z"/>
		</g>
	</g>
</g>
</svg>
