<?xml version="1.0" encoding="utf-8"?>
<!-- Generator: Adobe Illustrator 21.0.2, SVG Export Plug-In . SVG Version: 6.00 Build 0)  -->
<svg version="1.1" id="Layer_1" xmlns="http://www.w3.org/2000/svg" xmlns:xlink="http://www.w3.org/1999/xlink" x="0px" y="0px"
	 viewBox="0 0 60 60" style="enable-background:new 0 0 60 60;" xml:space="preserve">
<style type="text/css">
	.st0{fill:#FFFFFF;}
</style>
<g>
	<path class="st0" d="M30,49.8c-2.7,0-5.4-0.1-8.1-0.1c-2.3-0.1-4.6-0.5-6.6-1.7c-2.7-1.6-4.3-4-4.8-7.1c-0.3-1.8-0.4-3.7-0.4-5.5
		c-0.1-4,0-7.9,0-11.9c0-2.1,0.1-4.2,0.8-6.2c1.3-3.9,4.1-6.2,8.1-7c1.8-0.3,3.7-0.4,5.5-0.4c4-0.1,7.9,0,11.9,0
		c2.1,0,4.2,0.1,6.2,0.8c3.9,1.3,6.3,4.1,7,8.1c0.3,1.8,0.4,3.7,0.5,5.5c0.1,4,0,7.9,0,11.9c0,2.1-0.1,4.2-0.8,6.2
		c-1.3,3.9-4.1,6.2-8.1,7c-1.8,0.3-3.7,0.4-5.5,0.5C33.7,49.8,31.9,49.7,30,49.8C30,49.7,30,49.8,30,49.8z M13.5,29.4
		C13.6,29.4,13.6,29.4,13.5,29.4c0.1,0.8,0,1.7,0.1,2.5c0.1,2.5,0.1,4.9,0.3,7.4c0.3,3.4,2.3,5.7,5.7,6.4c1.8,0.3,3.7,0.4,5.5,0.4
		c3.3,0.1,6.6,0,9.9,0c1.5,0,3.1-0.1,4.6-0.3c3.4-0.3,5.7-2.3,6.3-5.7c0.3-1.8,0.4-3.6,0.4-5.4c0.1-3.4,0.1-6.7,0-10.1
		c0-1.7-0.1-3.4-0.4-5.1c-0.4-2.8-2-4.7-4.7-5.6c-1-0.3-2.1-0.5-3.1-0.5c-3.6-0.1-7.3-0.1-11-0.1c-2.3,0-4.6,0.1-6.8,0.3
		c-2.1,0.2-3.8,1-5.1,2.7c-1,1.4-1.4,2.9-1.5,4.6C13.7,23.8,13.6,26.6,13.5,29.4z"/>
	<path class="st0" d="M40.3,29.7C40.3,35.4,35.7,40,30,40c-5.7,0-10.3-4.6-10.3-10.4c0-5.6,4.6-10.2,10.4-10.2
		C35.7,19.5,40.3,24.1,40.3,29.7z M36.7,29.8c0-3.7-3-6.7-6.6-6.7c-3.7,0-6.7,3-6.7,6.6c0,3.7,3,6.7,6.6,6.7
		C33.6,36.4,36.6,33.4,36.7,29.8z"/>
	<path class="st0" d="M43.1,19.1c0,1.3-1.1,2.4-2.4,2.4c-1.3,0-2.4-1.1-2.4-2.4c0-1.3,1.1-2.4,2.4-2.4C42,16.7,43.1,17.7,43.1,19.1z
		"/>
</g>
</svg>
