<?xml version="1.0" encoding="utf-8"?>
<!-- Generator: Adobe Illustrator 21.0.2, SVG Export Plug-In . SVG Version: 6.00 Build 0)  -->
<svg version="1.1" id="Layer_1" xmlns="http://www.w3.org/2000/svg" xmlns:xlink="http://www.w3.org/1999/xlink" x="0px" y="0px"
	 viewBox="0 0 60 60" style="enable-background:new 0 0 60 60;" xml:space="preserve">
<style type="text/css">
	.st0{fill:#FFFFFF;}
</style>
<g>
	<path class="st0" d="M32.1,27.6c0.9-1.4,2.2-2.5,3.8-3c2.5-0.8,4.9-0.7,7.2,0.4c1.4,0.7,2.4,1.8,3,3.3c0.7,1.7,1,3.5,1,5.3
		c0,4.3,0,8.7,0,13c0,0.5,0,0.5-0.5,0.5c-2,0-4,0-6.1,0c-0.5,0-0.5,0-0.5-0.5c0-3.6,0-7.3,0-10.9c0-1-0.1-2-0.3-3
		c-0.4-1.4-1.4-2.2-2.9-2.3c-0.8,0-1.7,0-2.5,0.4c-1.1,0.6-1.6,1.7-1.8,2.9c-0.1,0.9-0.2,1.7-0.2,2.6c0,3.5,0,6.9,0,10.4
		c0,0.4-0.1,0.5-0.5,0.5c-2,0-4,0-6,0c-0.4,0-0.5-0.1-0.5-0.5c0-7.1,0-14.3,0-21.4c0-0.5,0-0.5,0.5-0.5c1.9,0,3.8,0,5.7,0
		c0.4,0,0.5,0.1,0.5,0.5C32.1,26,32.1,26.8,32.1,27.6z"/>
	<path class="st0" d="M14,35.8c0-3.5,0-7.1,0-10.6c0-0.6,0-0.6,0.6-0.6c2,0,4,0,6,0c0.5,0,0.5,0,0.5,0.5c0,7.2,0,14.3,0,21.5
		c0,0.4-0.1,0.5-0.5,0.5c-2,0-4,0-6,0c-0.4,0-0.5-0.1-0.5-0.5C14,43,14,39.4,14,35.8z"/>
	<path class="st0" d="M17.5,13.5c2.3,0,4.1,1.9,4.1,4.1c0,2.1-1.6,4.1-4.1,4.1c-2.5,0-4.1-1.9-4.1-4.1
		C13.5,15.3,15.3,13.5,17.5,13.5z"/>
</g>
</svg>
