<?xml version="1.0" encoding="utf-8"?>
<!-- Generator: Adobe Illustrator 21.0.2, SVG Export Plug-In . SVG Version: 6.00 Build 0)  -->
<svg version="1.1" id="Layer_1" xmlns="http://www.w3.org/2000/svg" xmlns:xlink="http://www.w3.org/1999/xlink" x="0px" y="0px"
	 viewBox="0 0 105 57" style="enable-background:new 0 0 105 57;" xml:space="preserve">
<style type="text/css">
	.st0{fill:#FFFFFF;}
</style>
<g>
	<path class="st0" d="M31.2,27.2c0,0.2,0.1,0.3,0.1,0.5c-0.2,0.7-0.4,1.2-0.8,1.3c-0.4,0.3-0.9,0.5-1.3,0.8
		c-0.3,0.2-0.6,0.3-0.8,0.3s-0.3,0.1-0.3,0.2c0,0.2-0.1,0.3-0.3,0.3c-0.1,0-0.4,0.1-1,0.1c-0.6,0-1.3,0-2.2,0c-0.3,0-0.5,0-0.7,0
		c-0.3,0-0.5,0-0.7,0c-0.3,0-0.5,0-0.6,0c-0.2,0-0.4,0-0.5,0c-0.2,0-0.4,0-0.5,0c-0.2,0-0.3,0-0.4,0c-0.2,0-0.3,0-0.4,0
		c-0.1,0-0.3,0-0.4,0c-0.4,0-0.8,0-1.2,0s-0.8,0-1.2,0c-0.1,0-0.3,0-0.4,0c-1.9,0-3.4,0-4.4-0.1s-2.1-0.2-3.2-0.3
		c-0.1,0-0.8-0.1-1.9-0.4c-0.6-0.1-0.9-0.2-1.1-0.2c-0.3,0.1-0.8,0.3-1.6,0.7s-1.2,0.8-1.4,1c-0.2,0.3-0.5,0.4-0.9,0.4
		c-0.6,0-0.9-0.2-1-0.6c-0.1-0.4,0.2-1.1,1-2.3c0.7-1,1.2-1.6,1.6-2c1-0.9,1.8-1.5,2.6-1.8C7.9,25.1,8.4,25,9,25l0.7-0.1
		c1.5-1.2,3-2.4,4.5-3.6c3.1-2.5,5.9-4.8,8.4-6.8c3.1-2.4,4.7-3.6,4.8-3.6c0.3,0.1,0.5,0.1,0.6,0.2c0.1,0.1,0.2,0.2,0.2,0.4
		c0,0.1-1.3,1.3-4,3.6c-1.6,1.3-4.1,3.5-7.6,6.5c-2.7,2.3-4.2,3.5-4.5,3.8c0.9,0.1,1.7,0.3,2.6,0.4c1.4,0.1,3,0.2,4.8,0.2
		c2.8,0,4.8,0,6,0s2-0.1,2.2-0.1c0.2,0,0.5-0.1,0.7-0.1c0.7,0,1.2,0.1,1.5,0.2c0.4,0.1,0.5,0.2,0.5,0.4c0.1,0.2,0.2,0.4,0.2,0.5
		C30.8,27,31,27.2,31.2,27.2z M32.6,5.2c-0.2,0.3-0.4,0.5-0.5,0.7c-0.4,0.5-0.7,0.7-0.8,0.8c-0.2,0-0.3,0.1-0.3,0.2
		c-0.1,0.1-0.1,0.3-0.1,0.7c0,0.3-0.1,0.6-0.2,0.8c-0.1,0.3-0.2,0.4-0.4,0.4c-0.7,0-2.4,0-4.9,0.1c-2.5,0.1-4.7,0.1-6.5,0.2
		c-1.3,0.2-2.5,0.4-3.7,0.5c0.2,0.4,0.4,0.7,0.5,0.9c0.3,0.7,0.5,1.2,0.5,1.5c-1-0.8-2.1-1.5-3.1-2.3c-1.1-0.7-2.2-1.5-3.2-2.3
		L6.4,5.6C6.3,5.6,6.3,5.3,6.5,5c0.2-0.3,0.4-0.5,0.6-0.6c0.1,0,0.2-0.2,0.4-0.4C7.7,3.7,7.8,3.5,8,3.5c0.1,0,0.5,0.2,1,0.6
		s1.2,0.8,1.8,1.2c0.1,0,0.7,0,2-0.1c3.8-0.2,6.5-0.3,8-0.3h8.3c0.7,0,1.4,0,2.1,0C32,4.9,32.5,5,32.6,5.2z"/>
	<path class="st0" d="M66.1,26.2c-0.3,0.6-0.7,1.4-1.2,2.4c-0.2,0.3-0.4,0.8-0.8,1.3c-0.4,0.3-1.7,0.6-4,1.2c-2.8,0.6-5.4,1-7.7,1.2
		c-0.6,0.1-1.4,0.1-2.3,0.1c-0.9,0-1.4,0-1.4,0c-3.3,0-5.9-0.4-8-1.3c-2-0.9-3.4-2.1-4.1-3.8c-0.2-0.4-0.3-0.8-0.4-1.3
		c-0.1-0.5-0.1-1-0.1-1.4c0-1.3,0.3-2.6,0.8-4c0.2-0.5,0.4-1.1,0.8-1.8c-0.3,0-0.8-0.1-1.4-0.2c-0.6-0.1-0.9-0.2-0.9-0.4
		c0-0.2,0.1-0.4,0.3-0.8c0.1-0.1,0.2-0.3,0.4-0.5c0.9,0,1.6,0,1.9,0c0.3,0,0.6,0,0.9,0c1.9-3.2,3.6-5.7,5-7.3
		C44,9.3,44.3,9,44.7,8.7c0.1,0,0.2,0.1,0.2,0.2c0,0.1,0,0.2-0.1,0.4c-0.1,0.2-0.1,0.4-0.1,0.4c0,0.1,0,0.1,0.1,0.1
		c0.1,0,0.3-0.1,0.4-0.2l-1.1,1.2c-0.3,0.3-0.9,1.4-2.1,3.2c-0.6,1-1.1,2-1.7,2.9c0.3,0,0.8,0.1,1.5,0.1c0.7,0,1.2,0.1,1.5,0.1
		c1.6-0.1,3.2-0.2,4.8-0.2c1.5-0.1,3.2-0.1,5.1-0.1c4.1,0,7.4,0.1,9.8,0.2c0.9,0.1,1.8,0.2,2.7,0.3c-0.2,0-0.3,0.3-0.4,0.7
		c-0.1,0.4-0.1,0.7-0.1,0.7c-0.1,0.2-0.5,0.5-1,1.1s-0.9,0.8-1,0.8c-0.7-0.1-1.5-0.2-2.2-0.3c-0.8-0.1-1.4-0.1-1.9-0.1s-0.8,0-1,0.1
		c-1.4,0.2-2.9,0.4-4.7,0.4c-2,0-4.2-0.1-6.5-0.4c-1.5-0.2-3.2-0.4-5.2-0.8c-0.7-0.1-1.4-0.2-2.1-0.4c-0.1,0.1-0.1,0.3-0.2,0.4
		c-0.3,0.7-0.5,1.3-0.8,2c-0.1,0.3-0.1,0.5-0.2,0.5c-0.1,0.3-0.1,0.6-0.1,0.7c0,1,0.6,1.8,1.9,2.4c1.8,0.9,4.7,1.6,8.8,2
		c2.4,0.2,4.6,0.3,6.7,0.3c2.5,0,4.6-0.1,6.5-0.4C63.4,27,64.7,26.7,66.1,26.2z M68.8,5.7c0,0.3,0,0.5,0,0.6c0,0.2,0,0.3-0.1,0.4
		c-0.1,0.1-0.3,0.4-0.5,0.6c-1.2,0.8-2.4,1.6-3.4,2.2c-1,0.7-1.8,1.3-2.5,2c0.1-0.2,0.1-0.4,0.2-0.6c0.6-1.2,1-1.9,1.3-2.1
		c-1.7-0.2-3.4-0.5-5.2-0.7c-3.3-0.3-7-0.6-11.2-0.9c-4.2-0.3-6.9-0.5-8.2-0.5c-1.7,0-2.7,0-3.1,0s-0.5-0.1-0.5-0.3
		c0.1-0.2,0.1-0.4,0.2-0.6c0-0.2,0.2-0.4,0.6-0.6c0.4-0.2,0.8-0.4,1.1-0.5c0.3-0.2,0.8-0.2,1.3-0.2c0.4,0,0.8,0,1.1,0s0.7,0,1,0
		c0.8,0,2.1,0,3.9,0c1.8,0,3.7,0.1,5.9,0.1c2.1,0,3.8,0,5.1,0c3.5,0,6.2,0,8.3-0.1c2-0.1,3.5-0.2,4.4-0.5c0,0.2,0.1,0.4,0.1,0.7
		C68.7,5.1,68.8,5.4,68.8,5.7z"/>
	<path class="st0" d="M101.8,4.5c-0.3,0.8-1.1,3.3-2.3,7.6c-1,3.7-2.1,7.4-3.1,11.1c-1,3.7-1.6,5.6-1.7,5.6c0,0-0.2,0-0.4-0.2
		s-0.4-0.1-0.4,0c0,0.1-0.4,0.2-1,0.4c-0.2,0-0.5,0.1-0.9,0.2c-1.1-1.4-2.4-3.6-4-6.7c-0.9-1.7-2-4.2-3.5-7.5
		c-0.5-1.1-1.1-2.1-1.6-3.2c-0.4,1.4-1.4,3.8-3,7.2c-1.4,2.9-2.8,5.7-4.4,8.5c-1.6,2.8-2.4,4.1-2.6,4c-0.3-0.1-0.4-0.2-0.5-0.3
		c-0.1-0.1-0.1-0.2-0.2-0.4c-0.2-0.4-0.4-0.7-0.5-1c-0.1-0.3-0.2-0.5-0.1-0.7c0.1-2,0.2-3.6,0.3-4.7c0.1-1.1,0.2-1.7,0.4-1.8
		c0.7-0.7,1.1-1.1,1.4-1.3c0.1,0,0.2,0,0.4,0c0,1.6,0.1,2.8,0.2,3.7c0.1,0.3,0.3,0.6,0.5,0.8c0.6-0.7,1.4-2.2,2.6-4.7
		c0.5-1.1,1.5-3.4,2.9-6.7c1-2.4,1.7-3.9,2-4.4c0.1-0.1,0.1-0.3,0.1-0.5c0-0.1,0-0.3-0.1-0.5c0,0,0-0.1-0.1-0.2
		c0-0.1-0.1-0.6-0.4-1.5c-0.3-0.9-0.4-1.5-0.4-1.7c0-0.2,0-0.3,0.1-0.3c0,0,0.3-0.2,0.9-0.6c0.4-0.3,0.7-0.4,1-0.4
		c0.1,0,0.3,0,0.7-0.1c0.4-0.1,0.6-0.1,0.8-0.1c0.2,0,0.3,0.1,0.3,0.2c0.5,2.6,1.4,5.9,2.7,9.8c0.5,1.5,1.2,3.3,2.1,5.4
		c0.9,2.1,1.6,3.7,2.2,4.8c0.4,0.5,0.8,1,1.2,1.5c0.1-0.8,0.8-2.9,1.9-6.4c1.1-3.5,2.2-6.7,3.2-9.6c1.2-3.3,1.9-5.1,2.2-5.3
		c0.3-0.2,0.5-0.2,0.7-0.2C101.8,4,102,4.2,101.8,4.5z"/>
</g>
<g>
	<path class="st0" d="M1.2,51.3c0-0.2,0.1-0.4,0.2-0.5c0.1-0.2,0.3-0.3,0.4-0.5C2,50.2,2.2,50,2.3,49.9c0.2-0.1,0.3-0.2,0.3-0.2
		c0.1,0.7,0.3,1.2,0.8,1.5c0.4,0.3,1,0.6,1.7,0.7s1.4,0.1,2.3,0c0.8-0.1,1.7-0.3,2.5-0.6c0.8-0.3,1.6-0.6,2.4-0.9
		c0.8-0.3,1.4-0.7,2-1.1c0.5-0.4,1-0.7,1.2-1.1c0.3-0.3,0.3-0.6,0.1-0.9L4,42.7c-0.1,0-0.3-0.1-0.5-0.2c-0.2-0.1-0.4-0.2-0.6-0.4
		c-0.2-0.1-0.4-0.3-0.5-0.5c-0.1-0.2-0.2-0.3-0.2-0.5c0-0.7,0.3-1.3,0.8-1.9c0.5-0.6,1.2-1.1,2-1.5c0.8-0.5,1.7-0.9,2.7-1.2
		c1-0.3,1.9-0.6,2.9-0.9s1.8-0.4,2.5-0.5s1.3-0.2,1.7-0.2c0.2-0.1,0.5-0.1,0.8-0.1c0.3,0,0.5,0.1,0.7,0.2c0.2,0.1,0.4,0.2,0.5,0.4
		c0.1,0.2,0.1,0.4,0,0.6c-0.1,0.2-0.3,0.4-0.7,0.6c-0.4,0.2-0.9,0.3-1.5,0.5c-0.6,0.1-1.2,0.3-2,0.4c-0.7,0.1-1.4,0.3-2.2,0.4
		c-0.7,0.1-1.4,0.3-2.1,0.5c-0.7,0.2-1.3,0.4-1.8,0.6c-0.5,0.2-0.9,0.5-1.2,0.8c-0.3,0.3-0.4,0.6-0.3,1c0.4,0.1,0.9,0.3,1.6,0.5
		c0.7,0.2,1.5,0.5,2.4,0.9c0.9,0.3,1.8,0.7,2.8,1c1,0.4,1.9,0.7,2.7,1.1s1.5,0.7,2.1,1.1c0.6,0.3,1,0.6,1.1,0.9
		c0.3,0.5,0.5,1.1,0.4,1.6s-0.3,1-0.6,1.4c-0.4,0.5-0.8,0.9-1.4,1.3c-0.6,0.4-1.2,0.8-2,1.1c-0.7,0.3-1.5,0.7-2.2,0.9
		s-1.5,0.5-2.2,0.7c-0.7,0.2-1.4,0.3-1.9,0.4c-0.6,0.1-1.1,0.1-1.4,0.1c-0.2,0-0.5,0-0.8,0s-0.7-0.1-1.1-0.2
		c-0.4-0.1-0.8-0.2-1.1-0.4c-0.4-0.1-0.7-0.3-1-0.5c-0.3-0.2-0.6-0.4-0.8-0.7C1.3,51.9,1.2,51.6,1.2,51.3z"/>
	<path class="st0" d="M19.1,53.2c0.1-0.2,0.1-0.6,0.2-1.2c0-0.6,0.1-1.3,0.1-2.1s0-1.7,0-2.7c0-1,0-2,0-3c0-1,0-2,0-3
		c0-1,0.1-1.9,0.1-2.7c0.1-0.8,0.1-1.5,0.2-2.1s0.2-0.9,0.4-1.1c0-0.2,0.2-0.3,0.3-0.4c0.2-0.1,0.4-0.2,0.6-0.2s0.4-0.1,0.6-0.1
		c0.2,0,0.3,0,0.4,0c0,0.4,0,0.9,0,1.6c0,0.7,0,1.4,0,2.1s0,1.5-0.1,2.2c0,0.7,0,1.3-0.1,1.7c0.8-0.4,1.6-0.9,2.4-1.4
		c0.8-0.5,1.5-1.1,2.2-1.6c0.7-0.6,1.4-1.1,2-1.6c0.6-0.5,1.3-1,1.8-1.4s1.1-0.8,1.6-1c0.5-0.3,0.9-0.4,1.3-0.4
		c0.2,0,0.4,0.1,0.5,0.2s0.2,0.3,0.2,0.5c0,0.4-0.3,0.9-0.9,1.4c-0.6,0.5-1.3,1.1-2.2,1.7c-0.9,0.6-1.9,1.3-2.9,1.9
		c-1,0.7-2,1.3-2.9,1.9c-0.9,0.6-1.6,1.1-2.2,1.6s-0.9,0.9-0.9,1.2c0.3,0.2,0.9,0.5,1.7,0.8c0.8,0.3,1.6,0.7,2.6,1.2
		c1,0.4,2,0.9,3,1.4s2,1,2.8,1.5c0.9,0.5,1.6,1,2.1,1.4c0.5,0.5,0.8,0.9,0.8,1.3c0,0.1,0,0.3-0.1,0.3s-0.2,0.1-0.3,0.2
		s-0.2,0.1-0.3,0.1c-0.1,0-0.2,0-0.2,0c-0.5-0.1-1.2-0.4-1.9-0.9c-0.7-0.5-1.6-1-2.6-1.5S27.2,50,26,49.4c-1.3-0.6-2.7-1.1-4.3-1.5
		v5.6c0,0.1-0.2,0.2-0.5,0.2c-0.3,0.1-0.6,0.1-0.9,0.2c-0.3,0-0.6,0-0.9-0.1C19.1,53.7,19,53.5,19.1,53.2z"/>
	<path class="st0" d="M36.2,35c0.4,0.1,0.9,0.2,1.6,0.2c0.7,0,1.4,0,2.2,0c0.8,0,1.7,0,2.5-0.1c0.9,0,1.7,0,2.5,0s1.5,0,2.2,0.1
		c0.7,0.1,1.2,0.1,1.5,0.3v1.4c-0.5,0.1-1.2,0.1-2.1,0.1c-0.9,0-1.8,0-2.8,0c-1,0-2,0-3,0.1c-1,0.1-1.9,0.2-2.6,0.3
		C38.1,38,38,38.5,38,38.9s-0.1,0.8-0.1,1.1c0,0.3,0,0.6,0,0.9c0,0.3,0,0.6,0,0.9c0,0.3,0,0.7,0.1,1.1c0,0.4,0,0.9,0,1.5
		c1,0,1.9,0,2.8-0.1c0.9-0.1,1.8-0.2,2.7-0.3s1.8-0.2,2.7-0.3c0.9-0.1,1.8-0.1,2.7-0.1v1.5l-10.7,1.3l0.2,5.7c1.4,0,2.7,0,3.8-0.1
		s2.2-0.2,3.2-0.3c1-0.1,2-0.2,3-0.3s2.1-0.1,3.2-0.1c0,0.2,0,0.4-0.1,0.6c-0.1,0.2-0.2,0.4-0.4,0.6c-0.1,0.2-0.3,0.3-0.5,0.4
		c-0.2,0.1-0.4,0.1-0.5-0.1c-1,0.1-2.2,0.2-3.4,0.3c-1.2,0.1-2.5,0.2-3.8,0.3c-1.3,0.1-2.5,0.2-3.7,0.3c-1.2,0.1-2.2,0.2-3.1,0.3
		L36.2,35z"/>
	<path class="st0" d="M57.5,37.2l-6-0.4c-0.1,0-0.1,0-0.2-0.1c-0.1-0.1-0.1-0.2-0.1-0.3c0-0.1-0.1-0.2-0.1-0.3s0-0.2,0-0.3
		c0-0.3,0.1-0.5,0.2-0.7c0.2-0.2,0.4-0.4,0.6-0.4c1.4,0.1,2.7,0.1,4.1,0.3s2.7,0.2,4.1,0.3c1.4,0.1,2.7,0.1,4.1,0
		c1.4,0,2.7-0.2,4-0.4c0.1,0,0.2,0.1,0.3,0.3c0.1,0.1,0.1,0.3,0.2,0.5c0,0.2,0.1,0.4,0.1,0.6c0,0.2,0,0.4,0,0.5
		c-0.9,0.3-1.7,0.4-2.4,0.5c-0.7,0.1-1.4,0.1-2,0.1c-0.7,0-1.3,0-2,0s-1.5,0-2.4,0.2c0,0.5-0.1,1.1-0.1,2c-0.1,0.8-0.1,1.8-0.2,2.8
		c-0.1,1-0.1,2.1-0.2,3.2c-0.1,1.1-0.1,2.2-0.2,3.2s-0.1,2-0.1,2.9c0,0.9,0,1.6,0.1,2.2l-2.6,0.2L57.5,37.2z"/>
	<path class="st0" d="M66.9,46.3c0-1.7,0.3-3.2,0.8-4.6S69,39,70,38c1-1,2.1-1.9,3.4-2.4c1.3-0.6,2.7-0.9,4.2-0.9
		c0.6,0,1.1,0,1.5,0.1c0.4,0.1,0.7,0.2,1,0.5c0.3,0.2,0.4,0.6,0.5,1c0.1,0.4,0.2,1,0.2,1.7c-0.9-0.8-1.8-1.3-2.8-1.5
		s-1.9-0.2-2.9,0.1c-0.9,0.3-1.8,0.7-2.7,1.4c-0.8,0.7-1.6,1.4-2.2,2.3c-0.6,0.9-1.1,1.8-1.4,2.9s-0.4,2.1-0.3,3.1
		c0.2,1.1,0.5,1.9,0.9,2.7c0.4,0.7,0.9,1.3,1.5,1.7c0.6,0.4,1.3,0.8,2,0.9c0.8,0.2,1.6,0.3,2.4,0.3c1.1-0.1,2.1-0.3,2.9-0.6
		c0.8-0.3,1.6-0.7,2.3-1.1c0.7-0.4,1.4-0.9,2-1.4c0.6-0.5,1.3-1,2-1.5c0.1,0,0.3,0,0.4,0c0.1,0,0.3,0,0.4,0.1s0.2,0.1,0.3,0.2
		s0.1,0.3,0.1,0.4c-0.7,0.7-1.5,1.4-2.4,2.1c-0.9,0.7-1.8,1.3-2.7,1.9s-2,1-3,1.3c-1,0.3-2.1,0.5-3.2,0.4c-1,0-1.9-0.2-2.8-0.5
		c-0.9-0.4-1.7-0.9-2.4-1.5s-1.3-1.5-1.7-2.4S66.9,47.4,66.9,46.3z"/>
	<path class="st0" d="M88,46.4c-0.3,0-0.5-0.1-0.7-0.2c-0.2-0.1-0.3-0.2-0.3-0.5c0-0.2,0.1-0.4,0.2-0.6c0.1-0.2,0.3-0.4,0.5-0.6
		c0.2-0.2,0.3-0.4,0.5-0.6s0.2-0.5,0.3-0.7c0-0.2,0-0.5,0.1-0.9c0-0.4,0-0.9,0.1-1.4c0-0.5,0-1.1,0.1-1.6c0-0.6,0.1-1.1,0.1-1.6
		c0-0.5,0-1,0-1.4c0-0.4,0-0.7,0-0.9c0.1-0.1,0.2-0.2,0.4-0.3c0.2-0.1,0.4-0.2,0.6-0.2c0.2,0,0.4,0,0.5,0c0.2,0.1,0.3,0.2,0.4,0.5
		l-0.1,8.4c0.1,0,0.3,0,0.6,0c0.4,0,0.8,0,1.3,0c0.5,0,1.1,0,1.7-0.1c0.6,0,1.2-0.1,1.8-0.1s1.1-0.2,1.6-0.3
		c0.5-0.1,0.9-0.2,1.1-0.4l0.1-7.5c0-0.1,0.2-0.2,0.3-0.3c0.2-0.1,0.4-0.1,0.6-0.1s0.4,0,0.7,0c0.2,0,0.4,0,0.5,0c0,0.3,0,0.8,0,1.5
		c0,0.7,0,1.4,0.1,2.2c0,0.8,0.1,1.7,0.1,2.6c0,0.9,0,1.8,0.1,2.6c0,0.8,0.1,1.6,0.1,2.2c0,0.7,0,1.2,0.1,1.5c0,0.5,0.1,1,0.1,1.5
		c0,0.5,0.1,1,0.2,1.5c0.1,0.5,0.2,1,0.4,1.5c0.2,0.5,0.4,1,0.6,1.4c-0.4,0.4-0.9,0.7-1.3,0.8c-0.4,0.1-0.9,0-1.5-0.3
		c-0.3-0.6-0.5-1.3-0.6-2.1c-0.2-0.7-0.3-1.5-0.4-2.3c-0.1-0.8-0.2-1.5-0.2-2.3s-0.1-1.5-0.1-2.1c-0.8,0-1.5,0-2.1,0
		c-0.6,0-1.2,0-1.8,0.1c-0.6,0-1.2,0.1-1.8,0.3c-0.6,0.1-1.3,0.3-2.1,0.6c0,0.5-0.1,1.1-0.1,1.8c0,0.7,0,1.3,0,2
		c0,0.7,0.1,1.4,0.1,2.1c0.1,0.7,0.2,1.3,0.3,1.9L89,54L88,46.4z"/>
</g>
</svg>
