<?xml version="1.0" encoding="utf-8"?>
<!-- Generator: Adobe Illustrator 21.0.2, SVG Export Plug-In . SVG Version: 6.00 Build 0)  -->
<svg version="1.1" id="Layer_1" xmlns="http://www.w3.org/2000/svg" xmlns:xlink="http://www.w3.org/1999/xlink" x="0px" y="0px"
	 viewBox="0 0 303 100" style="enable-background:new 0 0 303 100;" xml:space="preserve">
<style type="text/css">
	.st0{fill:#FFFFFF;}
</style>
<g>
	<path class="st0" d="M109.2,68.7c1.3,0,2.3,0.4,3,1.2c0.7,0.8,1,2,1,3.6c0,0.9-0.1,1.7-0.3,2.5c-0.2,0.7-0.4,1.4-0.8,1.9
		s-0.8,0.9-1.4,1.2c-0.6,0.3-1.3,0.4-2.1,0.4h-7.8l-2.2-3h10.3c0.4,0,0.7-0.2,0.9-0.5s0.4-1,0.4-1.9c-0.1-0.9-0.2-1.4-0.4-1.7
		c-0.2-0.3-0.5-0.4-0.9-0.4H103c-0.7,0-1.3-0.1-1.8-0.2c-0.5-0.2-0.9-0.5-1.2-0.9c-0.3-0.5-0.6-1-0.7-1.6S99,67.8,99,67
		s0.1-1.6,0.3-2.3c0.2-0.7,0.4-1.3,0.8-1.8s0.8-0.9,1.4-1.1c0.6-0.3,1.3-0.4,2.1-0.4h6.5l2.7,3.3h-9.4c-0.4,0.1-0.7,0.2-0.8,0.4
		c-0.2,0.2-0.3,0.8-0.4,1.8c0,0.6,0.1,1,0.3,1.2c0.2,0.2,0.5,0.4,0.9,0.5L109.2,68.7L109.2,68.7z"/>
	<path class="st0" d="M147,61.4l2.4,3.3h-5.7v14.7h-3.5V64.7h-3.8l-2.3-3.3C134.1,61.4,147,61.4,147,61.4z"/>
	<path class="st0" d="M184.9,71.4c0,5.4-2.3,8-6.9,8c-1.3,0-2.5-0.2-3.5-0.5s-1.7-0.8-2.4-1.5c-0.6-0.7-1.1-1.5-1.4-2.5
		c-0.3-1-0.4-2.2-0.4-3.5v-10h3.4v10c0,1.1,0.1,1.8,0.2,2.1c0.1,0.4,0.3,0.8,0.6,1.3s0.7,0.9,1.3,1.2c0.6,0.3,1.2,0.4,1.9,0.4
		c0.8,0,1.5-0.2,2-0.5s0.9-0.7,1.1-1.2c0.3-0.5,0.4-0.9,0.5-1.3s0.1-1.1,0.1-2.2v-10h3.4L184.9,71.4L184.9,71.4z"/>
	<path class="st0" d="M220.9,70.2c0,1.3-0.2,2.5-0.5,3.6s-0.8,2.1-1.3,2.9c-0.6,0.8-1.2,1.5-2,1.9s-1.6,0.7-2.5,0.7h-7V68.2h3.3v8
		h3.8c0.4,0,0.9-0.2,1.2-0.5c0.4-0.3,0.7-0.7,1-1.2s0.5-1.1,0.6-1.9c0.1-0.7,0.2-1.4,0.2-2.1c0-0.6-0.1-1.4-0.2-2.2
		c-0.1-0.8-0.3-1.5-0.6-1.9c-0.3-0.5-0.6-0.9-1-1.2c-0.4-0.4-0.9-0.6-1.3-0.6h-6.1l-2.3-3.2h8.4c0.9,0,1.8,0.2,2.5,0.6
		c0.8,0.4,1.4,1,2,1.8c0.6,0.8,1,1.7,1.3,2.8C220.8,67.8,220.9,68.9,220.9,70.2z"/>
	<path class="st0" d="M246.1,79.4h-3.5v-18h3.5V79.4z"/>
	<path class="st0" d="M275.3,61.4c2.5,0,4.4,0.7,5.7,2.2c1.3,1.5,1.9,3.8,1.9,6.9c0,3.2-0.6,5.5-1.9,7s-3.2,2.2-5.7,2.2
		s-4.5-0.7-5.7-2.2c-1.3-1.5-1.9-3.8-1.9-7c0-3.1,0.6-5.5,1.9-6.9C270.9,62.1,272.8,61.4,275.3,61.4z M275.3,76.4
		c0.8,0,1.5-0.2,2.1-0.5s1-0.7,1.4-1.3c0.3-0.5,0.6-1.1,0.8-1.7c0.2-0.6,0.2-1.3,0.2-2.3c0-0.9-0.1-1.7-0.2-2.2
		c-0.2-0.6-0.4-1.1-0.8-1.6s-0.8-0.9-1.4-1.3s-1.2-0.5-2.1-0.5c-0.8,0-1.5,0.2-2.1,0.5c-0.6,0.4-1,0.8-1.4,1.3s-0.6,1-0.8,1.6
		s-0.2,1.3-0.2,2.2c0,0.9,0.1,1.7,0.2,2.3s0.4,1.1,0.8,1.7c0.3,0.5,0.8,1,1.4,1.3C273.9,76.3,274.5,76.4,275.3,76.4z"/>
</g>
<g>
	<path class="st0" d="M122.6,38.3c0,2.2-0.3,4.2-0.8,6.1c-0.5,1.9-1.3,3.5-2.2,4.9c-0.9,1.4-2,2.4-3.3,3.2s-2.7,1.2-4.2,1.2h-11.8
		V34.9h5.5v13.4h6.3c0.7,0,1.4-0.3,2.1-0.8c0.6-0.6,1.2-1.3,1.7-2.1s0.9-1.9,1.1-3.1c0.2-1.2,0.3-2.4,0.3-3.5s-0.1-2.3-0.3-3.7
		c-0.2-1.4-0.5-2.5-1-3.2c-0.4-0.8-1-1.4-1.8-2.1c-0.7-0.6-1.5-0.9-2.2-0.9h-10.2L98,23.6h14.1c1.5,0,2.9,0.4,4.2,1.1
		c1.3,0.7,2.4,1.7,3.4,3c0.9,1.3,1.7,2.9,2.2,4.7C122.4,34.2,122.6,36.2,122.6,38.3z"/>
	<path class="st0" d="M147.7,48.7v5h-22.5V23.5h18.1l4.2,5.5H131v6.8h12.6l-0.1,5.2H131v7.7H147.7z"/>
	<path class="st0" d="M167.1,35.8c2.2,0,3.9,0.6,5,1.9c1.1,1.3,1.7,3.3,1.7,6.1c0,1.5-0.1,2.9-0.4,4.2c-0.3,1.2-0.7,2.3-1.4,3.1
		c-0.6,0.8-1.4,1.5-2.4,1.9c-1,0.5-2.1,0.7-3.5,0.7H153l-3.7-5h17.2c0.7,0,1.2-0.3,1.6-0.9c0.4-0.6,0.6-1.6,0.7-3.2
		c-0.1-1.4-0.3-2.4-0.7-2.8c-0.4-0.5-0.9-0.7-1.6-0.7h-9.8c-1.2,0-2.2-0.1-3-0.4c-0.8-0.3-1.5-0.8-2.1-1.5c-0.6-0.8-1-1.7-1.2-2.7
		c-0.3-1.1-0.4-2.2-0.4-3.5c0-1.4,0.1-2.7,0.4-3.9c0.3-1.2,0.8-2.1,1.4-3c0.6-0.8,1.4-1.4,2.4-1.9c1-0.4,2.1-0.7,3.5-0.7h10.9
		l4.5,5.5h-15.9c-0.6,0.1-1.1,0.4-1.4,0.7c-0.3,0.4-0.5,1.4-0.6,3c0,1,0.2,1.7,0.5,2.1c0.3,0.4,0.8,0.7,1.6,0.9h9.8V35.8z"/>
	<path class="st0" d="M196.8,23.5l4,5.5h-9.5v24.6h-5.9V29H179l-3.8-5.5H196.8z"/>
	<path class="st0" d="M208.6,53.7h-5.9V23.5h5.9V53.7z"/>
	<path class="st0" d="M217.1,36.8v16.9h-5.6V23.5l18.1,17.2V23.6h5.6v30.2L217.1,36.8z"/>
	<path class="st0" d="M260.2,48.7v5h-22.5V23.5h18.1L260,29h-16.5v6.8H256V41h-12.5v7.7H260.2z"/>
	<path class="st0" d="M287,38.3c0,2.2-0.3,4.2-0.8,6.1c-0.5,1.9-1.3,3.5-2.2,4.9c-0.9,1.4-2,2.4-3.3,3.2s-2.7,1.2-4.2,1.2h-11.8
		V34.9h5.5v13.4h6.3c0.7,0,1.4-0.3,2.1-0.8c0.6-0.6,1.2-1.3,1.7-2.1s0.9-1.9,1.1-3.1c0.2-1.2,0.3-2.4,0.3-3.5s-0.1-2.3-0.3-3.7
		c-0.2-1.4-0.5-2.5-1-3.2c-0.4-0.8-1-1.4-1.8-2.1c-0.7-0.6-1.5-0.9-2.2-0.9h-10.2l-3.9-5.3h14.1c1.5,0,2.9,0.4,4.2,1.1
		c1.3,0.7,2.4,1.7,3.4,3c0.9,1.3,1.7,2.9,2.2,4.7C286.7,34.2,287,36.2,287,38.3z"/>
</g>
<g>
	<path class="st0" d="M288.3,24.7H287v-0.5h3.2v0.5h-1.3v3.9h-0.6L288.3,24.7L288.3,24.7z"/>
	<path class="st0" d="M294.3,26.7c0-0.6-0.1-1.3-0.1-1.9l0,0c-0.1,0.5-0.3,1-0.5,1.6l-0.8,2.1h-0.4l-0.7-2.1
		c-0.2-0.6-0.4-1.2-0.5-1.7l0,0c0,0.5,0,1.3-0.1,1.9l-0.1,1.9h-0.5l0.3-4.3h0.7l0.7,2.1c0.2,0.5,0.3,1,0.4,1.5l0,0
		c0.1-0.4,0.3-0.9,0.5-1.5l0.8-2.1h0.7l0.3,4.3h-0.5L294.3,26.7z"/>
</g>
<path class="st0" d="M23.5,68.1c0,3.8,0,7.5,0,11.2H75c0-3.2,0-6.4,0-9.6c0-0.6,0.1-1.2,0.3-1.8c0.2-0.6,0.5-1.3,0.7-1.8
	c0-1.9,0-3.8,0-5.7c-1.3-0.4-2.7-0.4-4-0.1c-0.3,0.1-0.5,0.2-0.5,0.7c0,0.9,0,1.8,0,2.8c-0.6-0.2-1.1-0.3-1.7-0.5
	c-0.3-0.1-0.5-0.2-0.5-0.7c0-1.4,0-2.9,0-4.4c0-0.5-0.2-0.6-0.5-0.7c-1-0.3-2.1-0.4-3.1-0.3c-0.6,0.1-1.3,0.2-2,0.3
	c0-1.2,0-2.4,0-3.7c-0.1-1,0.1-1.9,0.5-2.9c0.2-0.5,0.4-1,0.4-1.6c0.1-1.4,0-2.9,0-4.3c0-0.3-0.1-0.5-0.4-0.6
	c-1-0.3-2.2-0.3-3.2-0.1c-0.4,0.1-0.6,0.2-0.6,0.8c0.1,0.7,0,1.5,0,2.3c-0.2-0.2-0.5-0.3-0.6-0.4c0-0.2,0.1-0.5,0.1-0.6
	c0-1.8,0-3.8,0-5.6c0-0.3-0.1-0.5-0.3-0.6c-1.5-0.5-3.1-0.4-4.6,0c-0.2,0.1-0.2,0.2-0.2,0.5c0,1.1,0,2.2,0,3.4c0,0.5,0,1,0,1.5
	c-0.7,0-1.4,0-2.2,0c0-0.2,0-0.2,0-0.3c0-4.2,0-8.4,0-12.5c0-0.2,0.1-0.5,0.2-0.6c0.4-1,0.9-1.9,1.3-2.8c0.1-0.2,0.2-0.6,0.2-0.9
	c0-1.9,0-3.9,0-5.8c0-0.6-0.2-0.9-0.6-1.1c-1-0.7-2.1-1.1-3.3-1.1c0-1,0-1.9,0-2.9c0-0.1,0.2-0.3,0.4-0.3s0.3,0.1,0.5,0.2
	c0.8,0.5,1.5,0.2,2.2-0.3c0.4-0.4,0.9-0.4,1.4-0.3c0.1,0,0.2,0.1,0.3,0.1c0-0.1,0.1-0.1,0.1-0.2c-0.5-0.4-0.9-0.8-1.4-1.3
	c0.4-0.6,0.8-1.3,1.3-1.9c-0.6-0.1-1.1,0.3-1.6,0.7c-0.5,0.5-1,0.5-1.6,0.2c-0.4-0.2-0.8-0.2-1.3-0.4c-0.2-0.1-0.4,0-0.6-0.1
	c0,2.2,0,4.3,0,6.5c-1.1,0.2-2.2,0.6-3.1,1.2c-0.2,0.2-0.3,0.3-0.3,0.6c0,1.4,0.1,2.7,0,4.1c-0.2,1.8,0.2,3.5,1.3,4.9
	c0.4,0.6,0.6,1.1,0.5,1.8c-0.1,3.9,0,7.9,0,11.8c0,0.2,0,0.4,0,0.6c-2.6,0-5.1,0-7.6,0c0-1.6,0-3.2,0-4.7c0-0.5-0.2-0.6-0.5-0.7
	c-1.4-0.4-3-0.4-4.4,0c-0.3,0.1-0.3,0.2-0.3,0.6c0,1.9,0,3.8,0,5.7c0,0.2,0,0.3,0.1,0.5c0.4,0.9,0.8,1.8,1.1,2.7
	c0.1,0.2,0.2,0.4,0.2,0.6c0,3.9,0,8,0,11.9c0,0.1,0,0.2,0,0.2c-0.2,0-0.2,0-0.5,0c0-0.8,0-1.6,0-2.3c0-0.2-0.2-0.5-0.2-0.5
	c-1.4-0.6-2.9-0.4-4.3,0c0,1,0,1.8,0,2.8c-1.4,0-2.7,0-4,0c0-0.2,0-0.4,0-0.6c0-1.4,0-2.8,0-4.2c0-0.4-0.1-0.6-0.5-0.7
	c-1.8-0.6-3.5-0.4-5.3,0.2c0,2.4,0,4.9,0,7.3c0.5,1,1,2.2,1.4,3.3C23.5,67.6,23.5,67.8,23.5,68.1z"/>
</svg>
